Coordinates
version=1
nRows=5
nColumns=40
inDegrees=yes

Units are S.I. units (second, meters, Newtons, ...)
If the header above contains a line with 'inDegrees', this indicates whether rotational values are in degrees (yes) or radians (no).

endheader
time	pelvis_tilt	pelvis_list	pelvis_rotation	pelvis_tx	pelvis_ty	pelvis_tz	hip_flexion_r	hip_adduction_r	hip_rotation_r	knee_angle_r	knee_angle_r_beta	ankle_angle_r	subtalar_angle_r	mtp_angle_r	hip_flexion_l	hip_adduction_l	hip_rotation_l	knee_angle_l	knee_angle_l_beta	ankle_angle_l	subtalar_angle_l	mtp_angle_l	lumbar_extension	lumbar_bending	lumbar_rotation	arm_flex_r	arm_add_r	arm_rot_r	elbow_flex_r	pro_sup_r	wrist_flex_r	wrist_dev_r	arm_flex_l	arm_add_l	arm_rot_l	elbow_flex_l	pro_sup_l	wrist_flex_l	wrist_dev_l
      0.66000000	     14.39031841	     -4.01802199	     -2.26205972	      1.00106256	      0.93304067	     -0.31441941	    -29.73092674	      3.85052558	     -2.30517185	     23.80576488	      0.41548898	     -8.06981247	      0.00000000	      0.00000000	     16.92230803	     -4.52989535	     -1.02576273	     18.06148768	      0.31523243	    -16.67511056	      0.00000000	      0.00000000	    -28.69346384	      2.25103505	      7.19325225	      9.53517527	    -18.95100418	     15.43444947	     52.25771492	     74.83690142	      0.00000000	      0.00000000	     -2.41591187	    -19.04234572	     15.90126584	     42.73127372	     79.12205488	      0.00000000	      0.00000000
      0.66400000	     14.40012027	     -3.90095631	     -2.31096657	      1.00728458	      0.93286175	     -0.31453313	    -29.71886778	      3.67312822	     -1.92844574	     24.37642978	      0.42544896	     -8.79951844	      0.00000000	      0.00000000	     16.96189870	     -4.40784147	     -0.87723374	     18.57216710	      0.32414547	    -17.17502805	      0.00000000	      0.00000000	    -28.67374440	      2.03534861	      7.12029350	      9.40880691	    -18.79347449	     15.32950561	     52.00977245	     74.83727504	      0.00000000	      0.00000000	     -2.37983225	    -19.08385563	     15.85881955	     42.64174188	     79.12658797	      0.00000000	      0.00000000
      0.66800000	     14.42704817	     -3.81804820	     -2.26253544	      1.01383266	      0.93270040	     -0.31494583	    -29.71867196	      3.52057156	     -1.89340695	     24.92745282	      0.43506613	     -9.88734371	      0.00000000	      0.00000000	     17.14042886	     -4.33713520	     -0.98422585	     19.44987920	      0.33946443	    -17.51672966	      0.00000000	      0.00000000	    -28.62136513	      1.93132051	      6.97397607	      9.24564267	    -18.68945106	     15.28282496	     51.71772218	     74.83072538	      0.00000000	      0.00000000	     -2.32442147	    -19.10427279	     15.83292280	     42.37290646	     79.33496253	      0.00000000	      0.00000000
      0.67200000	     14.46282444	     -3.71221369	     -2.32590570	      1.02018854	      0.93270443	     -0.31501811	    -29.70945184	      3.35839802	     -1.42797715	     25.49977936	      0.44505511	    -10.70534553	      0.00000000	      0.00000000	     17.14620430	     -4.17079932	     -0.55114843	     20.10614392	      0.35091841	    -17.74373635	      0.00000000	      0.00000000	    -28.62800600	      1.70598757	      6.90182850	      9.15725753	    -18.50891353	     15.16238922	     51.38062821	     74.83707497	      0.00000000	      0.00000000	     -2.31229142	    -19.12469406	     15.86853012	     42.31081894	     79.33032491	      0.00000000	      0.00000000
      0.67600000	     14.54537311	     -3.57958280	     -2.32910270	      1.02672983	      0.93275717	     -0.31565755	    -29.70747654	      3.11544512	     -1.28697752	     26.10531648	      0.45562372	    -11.79712463	      0.00000000	      0.00000000	     17.18654685	     -3.95582502	     -0.37809113	     20.95348751	      0.36570735	    -18.04130609	      0.00000000	      0.00000000	    -28.65053182	      1.54151538	      6.76049827	      9.04673831	    -18.39271572	     15.02006263	     50.99964752	     74.83025127	      0.00000000	      0.00000000	     -2.28684357	    -19.11381319	     15.92540127	     42.15991814	     79.31422054	      0.00000000	      0.00000000
